<svg xmlns="http://www.w3.org/2000/svg" width="120" height="120" fill="none"><g clip-path="url(#a)"><rect width="120" height="120" fill="#FF5E2B" rx="22"/><g filter="url(#b)"><circle cx="74.531" cy="89.531" r="69.798" fill="#FF5E2B" transform="rotate(45 74.531 89.531)"/></g><path fill="#fff" d="m89.049 102-6.455-7.792c-3.199 2.16-6.717 3.823-10.556 4.99-3.838 1.168-7.85 1.751-12.038 1.751-5.641 0-10.962-1.05-15.964-3.151-4.943-2.16-9.305-5.108-13.085-8.843-3.722-3.736-6.659-8.084-8.81-13.046C20.046 70.948 19 65.636 19 59.975 19 54.313 20.047 49 22.14 44.04c2.152-4.961 5.09-9.31 8.811-13.045 3.78-3.736 8.142-6.654 13.085-8.756C49.038 20.08 54.36 19 60 19c5.7 0 11.02 1.08 15.964 3.24 4.943 2.1 9.276 5.02 12.998 8.755 3.78 3.735 6.717 8.084 8.81 13.045C99.924 49.001 101 54.313 101 59.975c0 5.603-1.047 10.856-3.14 15.76-2.094 4.902-4.944 9.192-8.55 12.87L100.39 102H89.05ZM60 91.494c5.932 0 11.311-1.547 16.138-4.64l-22.244-26.88h11.689L83.03 80.988c2.384-2.801 4.245-5.982 5.583-9.543 1.395-3.619 2.093-7.442 2.093-11.47 0-5.836-1.366-11.118-4.1-15.846-2.675-4.787-6.339-8.58-10.991-11.382-4.653-2.86-9.858-4.29-15.615-4.29s-10.962 1.43-15.615 4.29c-4.594 2.801-8.258 6.595-10.991 11.382-2.734 4.727-4.1 10.01-4.1 15.847 0 5.778 1.366 11.06 4.1 15.847 2.733 4.786 6.397 8.61 10.991 11.47 4.653 2.8 9.858 4.202 15.615 4.202Z"/></g><defs><clipPath id="a"><rect width="120" height="120" fill="#fff" rx="22"/></clipPath><filter id="b" width="283.596" height="283.595" x="-67.267" y="-52.267" color-interpolation-filters="sRGB" filterUnits="userSpaceOnUse"><feFlood flood-opacity="0" result="BackgroundImageFix"/><feBlend in="SourceGraphic" in2="BackgroundImageFix" result="shape"/><feGaussianBlur result="effect1_foregroundBlur_1151_42" stdDeviation="36"/></filter></defs></svg>