<svg xmlns="http://www.w3.org/2000/svg" width="188" height="48" fill="none"><g fill="#0c111d"><path d="M0 15.898h17.346L.284 32.96l2.757 2.757L20.1 18.655V36h.111L24 32.212V16.248L19.752 12H3.786L0 15.785zm47.26 9.666h3.302v3.068H47.26V33h-3.666v-4.368H34v-2.678l9.932-11.778h3.328zm-8.58 0h4.914v-6.006zm21.091-5.356q1.924 0 3.432.754a5.5 5.5 0 0 1 2.392 2.236q.885 1.482.884 3.562 0 3.094-1.95 4.836-1.95 1.716-5.486 1.716-2.445 0-4.108-.806-1.638-.806-2.496-2.132a6.4 6.4 0 0 1-.962-2.912h3.744q.832 3.016 3.796 3.016 1.82 0 2.756-1.014.962-1.014.962-2.73 0-1.742-.962-2.704-.962-.988-2.73-.988-2.34 0-3.588 1.95l-3.38-.338 1.274-10.478h12.038v3.068h-8.996l-.572 4.316q1.404-1.352 3.952-1.352m21.139-6.032q3.927 0 7.098 1.872 3.198 1.846 3.198 7.54c0 5.694-1.066 6.318-3.198 7.566Q84.837 33 80.91 33h-6.344V14.176zm-.13 15.548q1.794-.026 3.198-.416 1.431-.416 2.418-1.768 1.014-1.352 1.014-3.952t-1.014-3.952q-.987-1.351-2.418-1.768-1.404-.416-3.198-.416h-2.548v12.272zM99.809 18.7q2.262 0 3.874 1.014 1.638.988 2.418 2.834.805 1.846.676 4.342H96.273q.182 1.767 1.118 2.678.935.91 2.444.91 1.326 0 2.132-.65.831-.65 1.118-1.638h3.614q-.469 2.445-2.314 3.796-1.82 1.326-4.55 1.326-2.236 0-3.874-.91a6.1 6.1 0 0 1-2.496-2.548q-.858-1.665-.858-3.848 0-2.159.884-3.822a6.2 6.2 0 0 1 2.522-2.574q1.638-.91 3.796-.91m3.354 5.902q-.156-1.404-1.014-2.262-.833-.858-2.366-.858-1.404 0-2.288.78-.885.78-1.17 2.34zm18.861-5.59v13.416q0 2.73-1.742 4.394-1.742 1.69-5.096 1.69-2.912 0-4.628-1.3-1.716-1.275-2.028-3.432h3.562q.624 1.924 3.094 1.924 1.716 0 2.496-.858.78-.832.78-2.47v-1.872q-1.455 2.235-4.394 2.236-1.846 0-3.25-.832-1.378-.858-2.158-2.444-.753-1.585-.754-3.744c-.001-2.159.252-2.687.754-3.744q.78-1.585 2.158-2.418 1.404-.858 3.25-.858 2.964 0 4.394 2.236v-1.924zm-6.994 10.92q1.743 0 2.678-1.17c.935-1.17.936-1.794.936-3.042s-.312-2.262-.936-3.042-1.516-1.17-2.678-1.17q-1.767 0-2.652 1.196-.858 1.17-.858 3.016 0 1.845.858 3.042.885 1.17 2.652 1.17m16.715-11.076q.443 0 .884.078v3.562a6 6 0 0 0-.988-.078q-1.638 0-2.444.78a3.3 3.3 0 0 0-1.014 1.794q-.208 1.014-.208 2.366V33h-3.562V19.012h3.51v2.392q1.144-2.548 3.822-2.548m8.855-.156q2.263 0 3.874 1.014 1.638.988 2.418 2.834.807 1.846.676 4.342h-10.504q.183 1.767 1.118 2.678.936.91 2.444.91 1.326 0 2.132-.65a3.14 3.14 0 0 0 1.118-1.638h3.614q-.468 2.445-2.314 3.796-1.82 1.326-4.55 1.326-2.236 0-3.874-.91a6.1 6.1 0 0 1-2.496-2.548q-.858-1.664-.858-3.848 0-2.159.884-3.822a6.23 6.23 0 0 1 2.522-2.574q1.639-.91 3.796-.91m3.354 5.902q-.156-1.404-1.014-2.262-.831-.858-2.366-.858-1.404 0-2.288.78t-1.17 2.34zm11.894-5.902q2.262 0 3.874 1.014 1.638.988 2.418 2.834.805 1.846.676 4.342h-10.504q.182 1.767 1.118 2.678.935.91 2.444.91 1.326 0 2.132-.65.831-.65 1.118-1.638h3.614q-.469 2.445-2.314 3.796-1.82 1.326-4.55 1.326-2.236 0-3.874-.91a6.1 6.1 0 0 1-2.496-2.548q-.858-1.664-.858-3.848 0-2.159.884-3.822a6.2 6.2 0 0 1 2.522-2.574q1.638-.91 3.796-.91m3.354 5.902q-.156-1.404-1.014-2.262-.833-.858-2.366-.858-1.404 0-2.288.78-.885.78-1.17 2.34zm11.394 8.71q-3.173 0-4.914-1.404c-1.741-1.404-1.82-2.115-1.976-3.536h3.562q.702 2.236 3.406 2.236 1.248 0 1.95-.442.702-.468.702-1.196 0-.78-.78-1.092-.754-.337-2.6-.676-1.716-.285-2.938-.676a5.4 5.4 0 0 1-2.106-1.3q-.884-.885-.884-2.366 0-2.106 1.768-3.12 1.768-1.04 4.316-1.04 2.808 0 4.472 1.222 1.69 1.223 2.002 3.276h-3.562q-.312-.858-1.014-1.326-.676-.468-1.976-.468-1.118 0-1.794.364-.65.364-.65.988 0 .546.52.91.546.338 1.196.494c.65.156 1.179.26 2.236.468q2.808.52 4.082 1.378c1.274.858 1.274 1.439 1.274 2.6q0 2.131-1.638 3.432-1.638 1.275-4.654 1.274m12.423-10.764q-1.17 0-2.184-.52a4.2 4.2 0 0 1-1.586-1.534q-.572-.988-.572-2.288t.572-2.288a4 4 0 0 1 1.586-1.508q1.014-.546 2.184-.546c1.17 0 1.499.182 2.158.546a3.9 3.9 0 0 1 1.612 1.534q.597.988.598 2.262 0 1.274-.598 2.288a4.16 4.16 0 0 1-1.612 1.534 4.56 4.56 0 0 1-2.158.52m0-2.184q.883 0 1.404-.572.546-.599.546-1.586t-.546-1.56q-.52-.572-1.404-.572-.858 0-1.404.572-.52.572-.52 1.56c0 .988.173 1.187.52 1.586q.546.572 1.404.572"/><path fill-rule="evenodd" d="M183.035 16.27a1.944 1.944 0 1 0-.001 3.889 1.944 1.944 0 0 0 .001-3.89zm0 6.3a4.355 4.355 0 1 0 0-8.71 4.355 4.355 0 0 0 0 8.71" clip-rule="evenodd"/></g></svg>