<svg xmlns="http://www.w3.org/2000/svg" width="145" height="48" fill="none"><g fill="#0c111d"><path fill-rule="evenodd" d="M15.229 5a9 9 0 0 0-7.795 4.5l-5.773 10a9 9 0 0 0 0 9l5.773 10A9 9 0 0 0 15.23 43h11.547a9 9 0 0 0 7.794-4.5l5.773-10a9 9 0 0 0 0-9l-5.773-10A9 9 0 0 0 26.776 5zm11.547 6h-7.217a1.5 1.5 0 0 0-1.298 2.249c1.784 3.084 3.572 6.165 5.353 9.25a3 3 0 0 1 0 3c-1.781 3.086-3.57 6.167-5.353 9.251A1.5 1.5 0 0 0 19.559 37h7.217a3 3 0 0 0 2.598-1.5l5.773-10a3 3 0 0 0 0-3l-5.773-10a3 3 0 0 0-2.598-1.5" clip-rule="evenodd"/><path d="M66.983 20.526h-4.536c-.513-1.809-1.809-2.781-3.645-2.781-2.781 0-4.374 2.322-4.374 6.102 0 3.807 1.566 6.048 4.374 6.048 1.728 0 3.078-.918 3.591-2.646h4.59c-.945 4.05-4.212 6.183-8.127 6.183-5.481 0-8.856-3.645-8.856-9.585s3.375-9.639 8.91-9.639c3.942 0 7.29 2.133 8.073 6.318m8.161 12.906c-4.4 0-7.128-2.916-7.128-7.695 0-4.941 2.808-7.722 7.128-7.722 4.401 0 7.155 2.97 7.155 7.722 0 4.914-2.835 7.695-7.155 7.695m0-3.348c1.917 0 2.916-1.512 2.916-4.347 0-2.808-1.026-4.374-2.916-4.374s-2.889 1.539-2.889 4.374c0 2.808 1.026 4.347 2.89 4.347zm8.8 2.916V18.474h4.13v2.025c.919-1.728 2.323-2.484 3.808-2.484.594 0 1.134.162 1.43.459v3.483a7.4 7.4 0 0 0-1.646-.162c-2.484 0-3.591 1.404-3.591 3.699V33zm23.907-4.779c-.756 3.348-3.456 5.211-7.02 5.211-4.51 0-7.29-2.916-7.29-7.695 0-4.941 2.808-7.722 7.128-7.722 4.347 0 7.074 2.889 7.074 7.641v.918h-9.99c.216 2.322 1.296 3.564 3.078 3.564 1.35 0 2.268-.594 2.7-1.917zm-7.182-6.912c-1.54 0-2.511.999-2.835 2.889h5.643c-.324-1.89-1.296-2.889-2.808-2.889m17.655 12.123c-5.697 0-9.207-3.672-9.207-9.585 0-5.94 3.51-9.639 9.207-9.639 5.67 0 9.18 3.699 9.18 9.639 0 5.913-3.51 9.585-9.18 9.585m0-3.537c2.997 0 4.752-2.268 4.752-6.048s-1.755-6.102-4.752-6.102c-3.024 0-4.779 2.295-4.779 6.102 0 3.78 1.755 6.048 4.779 6.048m15.142-10.53c0 3.915 10.8.594 10.8 8.1 0 3.78-3.132 5.967-7.425 5.967-4.347 0-7.452-1.998-8.1-6.183h4.563c.351 1.809 1.62 2.808 3.564 2.808s2.97-.783 2.97-2.052c0-4.104-10.827-.972-10.827-8.235 0-3.078 2.565-5.562 7.074-5.562 3.807 0 7.101 1.809 7.668 6.048h-4.617c-.378-1.809-1.431-2.673-3.213-2.673-1.512 0-2.457.702-2.457 1.782"/></g></svg>